#!OML:ASF X:\für Bonn\!DataBase\2005_08_12_Daniel\c3d\Daniel.ASF
:FULLY-SPECIFIED
:DEGREES
56
root 7.58319 20.2804 0.843544 316.874 84.0863 325.192
lowerback 20.1442 -1.76642 3.4987
upperback 3.47715 -1.35226 0.117574
thorax -7.57139 -0.646665 -1.52396
lowerneck 1.06302 3.64456 -5.71791
upperneck 17.8616 5.74056 -0.17268
head 5.06584 2.63592 1.13468
rclavicle -1.41634e-015 -5.76476e-015
rhumerus -39.9719 28.6626 -90.6119
rradius 107.359
rwrist -3.08477
rhand -16.9021 19.6295
rfingers 7.12502
rthumb 9.32985 -10.1441
lclavicle -1.41634e-015 -5.76476e-015
lhumerus 143.253 209.178 262.09
lradius 112.525
lwrist 20.7614
lhand -9.53634 -12.6455
lfingers 7.12502
lthumb 16.4301 16.6787
rfemur -7.40119 -3.76558 24.6651
rtibia 30.4014
rfoot 12.7314 -7.5803
rtoes -16.0109
lfemur -11.2983 4.48682 -16.7865
ltibia 44.194
lfoot 9.58421 0.468173
ltoes -13.42
57
root 7.78439 20.1328 0.848798 317.169 84.1086 325.427
lowerback 20.6244 -1.79575 3.50459
upperback 3.74818 -1.35533 0.0885763
thorax -7.53325 -0.635601 -1.55432
lowerneck 0.405969 3.57408 -5.40457
upperneck 17.6771 5.70604 -0.584744
head 5.13975 2.60299 0.967695
rclavicle 1.74434e-014 -9.93923e-016
rhumerus -41.6957 28.1645 -91.7738
rradius 105.228
rwrist -2.79563
rhand -17.5826 19.4577
rfingers 7.12502
rthumb 8.67312 -10.3441
lclavicle 1.74434e-014 -9.93923e-016
lhumerus 141.386 208.553 263.613
lradius 111.018
lwrist 20.2519
lhand -9.72029 -11.9765
lfingers 7.12502
lthumb 16.253 17.3623
rfemur -7.76838 -3.20373 24.5568
rtibia 29.4123
rfoot 13.0788 -8.21758
rtoes -15.4615
lfemur -11.9195 3.77479 -16.8635
ltibia 43.7976
lfoot 9.35711 0.964368
ltoes -13.8032
58
root 7.98528 19.9735 0.854262 317.548 84.1508 325.652
lowerback 20.9337 -1.8435 3.47547
upperback 4.02513 -1.39766 0.0693247
thorax -7.3975 -0.641678 -1.54622
lowerneck -0.10378 3.55279 -5.13496
upperneck 17.2489 5.71011 -0.996665
head 5.11139 2.59079 0.801154
rclavicle 7.25564e-015 3.97569e-016
rhumerus -43.2388 27.5534 -92.9618
rradius 102.846
rwrist -2.44122
rhand -18.5313 19.6698
rfingers 7.12502
rthumb 7.75757 -10.1678
lclavicle 7.25564e-015 3.97569e-016
lhumerus 139.693 207.529 265.057
lradius 109.358
lwrist 19.5228
lhand -9.64013 -11.1668
lfingers 7.12502
lthumb 16.3302 18.1656
rfemur -8.19747 -2.55897 24.4157
rtibia 28.3793
rfoot 13.6281 -8.97619
rtoes -14.5449
lfemur -12.7148 3.08155 -16.9462
ltibia 43.5462
lfoot 9.03582 1.47591
ltoes -14.1273
59
root 8.18455 19.8 0.859364 317.979 84.173 325.806
lowerback 21.0857 -1.86312 3.48861
upperback 4.29561 -1.40293 0.0424103
thorax -7.1841 -0.630785 -1.58277
lowerneck -0.481606 3.51465 -4.82391
upperneck 16.577 5.6621 -1.42304
head 4.98749 2.56004 0.614537
rclavicle -2.72335e-014 1.19271e-014
rhumerus -44.5733 26.6801 -94.039
rradius 100.31
rwrist -2.1908
rhand -19.596 20.3371
rfingers 7.12502
rthumb 6.72981 -9.536
lclavicle -2.72335e-014 1.19271e-014
lhumerus 138.402 206.286 266.371
lradius 107.443
lwrist 18.6198
lhand -9.23962 -10.3691
lfingers 7.12502
lthumb 16.7158 18.9312
rfemur -8.78359 -1.87238 24.2907
rtibia 27.4392
rfoot 14.2638 -9.71247
rtoes -13.617
lfemur -13.7164 2.33995 -17.0041
ltibia 43.4714
lfoot 8.6058 2.15539
ltoes -13.3894
60
root 8.38373 19.6045 0.863657 318.53 84.1963 326.029
lowerback 21.1902 -1.88849 3.4694
upperback 4.53653 -1.42516 0.0270915
thorax -6.97772 -0.62864 -1.58399
lowerneck -0.672983 3.49981 -4.58974
upperneck 15.6791 5.61586 -1.81427
head 4.75982 2.5349 0.444309
rclavicle -1.16289e-014 3.18055e-015
rhumerus -45.7256 25.6718 -94.9779
rradius 97.6591
rwrist -1.9609
rhand -20.6478 21.3786
rfingers 7.12502
rthumb 5.71443 -8.52431
lclavicle -1.16289e-014 3.18055e-015
lhumerus 137.36 204.799 267.552
lradius 105.326
lwrist 17.5727
lhand -8.71233 -9.63633
lfingers 7.12502
lthumb 17.2233 19.6204
rfemur -9.47738 -1.24051 24.1598
rtibia 26.7039
rfoot 14.8204 -10.2573
rtoes -12.5422
lfemur -14.8576 1.61237 -17.058
ltibia 43.5695
lfoot 8.13604 2.86666
ltoes -12.2417
61
root 8.58265 19.3858 0.867682 318.907 84.1869 326.083
lowerback 21.3219 -1.89787 3.48273
upperback 4.77213 -1.41723 0.0150437
thorax -6.79044 -0.612532 -1.60784
lowerneck -0.722356 3.48483 -4.35429
upperneck 14.1737 5.52877 -2.16918
head 4.79023 2.5073 0.274934
rclavicle -7.20594e-015 1.13307e-014
rhumerus -46.6417 24.5446 -95.7176
rradius 94.9172
rwrist -1.89351
rhand -21.6101 22.5459
rfingers 7.12502
rthumb 4.78522 -7.3801
lclavicle -7.20594e-015 1.13307e-014
lhumerus 136.502 203.184 268.633
lradius 102.984
lwrist 16.255
lhand -8.20211 -9.19736
lfingers 7.12502
lthumb 17.7144 20.0157
rfemur -10.3252 -0.702559 24.0693
rtibia 26.3391
rfoot 15.1189 -10.4895
rtoes -11.6103
lfemur -16.0365 0.992302 -17.0479
ltibia 43.8029
lfoot 7.59726 3.39518
ltoes -11.0504
62
root 8.78137 19.157 0.871203 319.428 84.1812 326.322
lowerback 21.4911 -1.9047 3.43258
upperback 5.02368 -1.41526 0.0182668
thorax -6.60376 -0.597202 -1.57698
lowerneck -0.776555 3.48338 -4.05354
upperneck 12.8722 5.45566 -2.58726
head 4.34218 2.48315 0.0637991
rclavicle 3.07122e-014 -2.5842e-015
rhumerus -47.3033 23.3529 -96.3012
rradius 92.0872
rwrist -1.76998
rhand -22.3968 23.5816
rfingers 7.12502
rthumb 4.02565 -6.36008
lclavicle 3.07122e-014 -2.5842e-015
lhumerus 135.807 201.309 269.54
lradius 100.52
lwrist 14.7702
lhand -7.60193 -9.09211
lfingers 7.12502
lthumb 18.2918 20.0678
rfemur -11.3153 -0.241563 23.9613
rtibia 26.4805
rfoot 15.0069 -10.4426
rtoes -10.3408
lfemur -17.1592 0.318554 -17.0307
ltibia 44.1404
lfoot 6.72274 3.79035
ltoes -9.75644
63
root 8.97991 18.9246 0.873567 319.93 84.146 326.636
lowerback 21.7859 -1.9151 3.40001
upperback 5.26253 -1.40781 0.0119412
thorax -6.49637 -0.580124 -1.56591
lowerneck -0.824777 3.4848 -3.77098
upperneck 11.4468 5.37215 -2.95619
head 3.8569 2.4589 -0.125099
rclavicle 6.4605e-015 -1.11319e-014
rhumerus -47.9684 22.0097 -96.7442
rradius 89.3056
rwrist -1.58894
rhand -23.018 24.4458
rfingers 7.12502
rthumb 3.42572 -5.50639
lclavicle 6.4605e-015 -1.11319e-014
lhumerus 135.169 199.248 270.356
lradius 97.9356
lwrist 13.1663
lhand -7.2582 -9.22841
lfingers 7.12502
lthumb 18.6225 19.9002
rfemur -12.4309 0.07289 23.8855
rtibia 27.2106
rfoot 14.4893 -9.86167
rtoes -9.61037
lfemur -18.0727 -0.385969 -16.9723
ltibia 44.5909
lfoot 5.41104 4.01597
ltoes -8.82303
64
root 9.17682 18.6827 0.875863 320.323 84.0825 326.954
lowerback 22.1887 -1.91566 3.36264
upperback 5.53427 -1.37944 0.0141154
thorax -6.40677 -0.550723 -1.54753
lowerneck -0.98764 3.48945 -3.49921
upperneck 9.89136 5.28771 -3.29894
head 3.35857 2.43691 -0.298108
rclavicle 6.5102e-015 -1.98785e-016
rhumerus -48.5435 20.4975 -97.0097
rradius 86.5302
rwrist -1.17944
rhand -23.6138 25.0603
rfingers 7.12502
rthumb 2.85029 -4.90036
lclavicle 6.5102e-015 -1.98785e-016
lhumerus 134.675 197.067 271.027
lradius 95.2475
lwrist 11.6702
lhand -7.17972 -9.6857
lfingers 7.12502
lthumb 18.698 19.4357
rfemur -13.5337 0.347676 23.846
rtibia 28.4902
rfoot 13.2973 -8.9146
rtoes -9.32082
lfemur -18.6977 -1.02306 -16.8596
ltibia 45.2337
lfoot 3.59446 4.09514
ltoes -8.75262
65
root 9.37334 18.4313 0.8771 320.805 83.9899 327.373
lowerback 22.5676 -1.90126 3.34723
upperback 5.80356 -1.32852 0.00558385
thorax -6.30566 -0.51059 -1.55998
lowerneck -1.43717 3.47165 -3.18699
upperneck 8.39782 5.18995 -3.63634
head 2.94764 2.40609 -0.466547
rclavicle -1.41634e-014 1.05356e-014
rhumerus -48.9677 19.0145 -97.1644
rradius 83.6452
rwrist -0.779945
rhand -24.3013 25.4095
rfingers 7.12502
rthumb 2.18638 -4.55907
lclavicle -1.41634e-014 1.05356e-014
lhumerus 134.211 194.874 271.584
lradius 92.5351
lwrist 10.425
lhand -7.44611 -10.1865
lfingers 7.12502
lthumb 18.4417 18.9593
rfemur -14.6326 0.519613 23.8208
rtibia 30.3106
rfoot 11.0395 -7.41681
rtoes -9.38775
lfemur -19.3629 -1.844 -16.6959
ltibia 46.1887
lfoot 1.2646 4.27276
ltoes -9.7938
66
root 9.56678 18.1742 0.877628 321.138 83.8877 327.689
lowerback 22.9778 -1.8948 3.34144
upperback 6.04977 -1.28436 -0.00121597
thorax -6.245 -0.474779 -1.57381
lowerneck -1.85659 3.46795 -2.94579
upperneck 6.81053 5.10418 -3.89945
head 2.50383 2.38627 -0.597828
rclavicle 1.0635e-014 -9.14409e-015
rhumerus -49.3035 17.6227 -97.2536
rradius 80.5727
rwrist -0.327194
rhand -25.2604 25.7546
rfingers 7.12502
rthumb 1.26004 -4.22138
lclavicle 1.0635e-014 -9.14409e-015
lhumerus 133.745 192.595 272.072
lradius 89.7784
lwrist 9.55762
lhand -8.06525 -10.686
lfingers 7.12502
lthumb 17.8461 18.5152
rfemur -15.7609 0.708547 23.8135
rtibia 32.7514
rfoot 7.75898 -5.63319
rtoes -9.74554
lfemur -20.0947 -2.72788 -16.4685
ltibia 47.6295
lfoot -1.63117 4.42611
ltoes -10.5881
67
root 9.7606 17.9066 0.877527 321.345 83.7204 327.904
lowerback 23.4079 -1.87473 3.3804
upperback 6.2726 -1.21028 0.0102502
thorax -6.21738 -0.425857 -1.60171
lowerneck -2.27398 3.45106 -2.74842
upperneck 5.16882 5.00367 -4.14159
head 2.04875 2.36309 -0.714216
rclavicle 2.98177e-016 -1.98785e-016
rhumerus -49.3358 16.2333 -97.216
rradius 77.2475
rwrist 0.165688
rhand -26.4026 26.1766
rfingers 7.12502
rthumb 0.156923 -3.80311
lclavicle 2.98177e-016 -1.98785e-016
lhumerus 133.358 190.34 272.507
lradius 86.8899
lwrist 9.2017
lhand -9.09885 -11.2377
lfingers 7.12502
lthumb 16.8513 18.0511
rfemur -16.9587 0.907554 23.8631
rtibia 35.7084
rfoot 3.79419 -3.89773
rtoes -10.1472
lfemur -20.9282 -3.50641 -16.1719
ltibia 49.6319
lfoot -4.93204 4.26817
ltoes -11.7876
68
root 9.9547 17.6118 0.876369 321.487 83.5405 328.074
lowerback 23.91 -1.86046 3.44316
upperback 6.46345 -1.1356 0.0118734
thorax -6.2602 -0.378367 -1.6537
lowerneck -2.78856 3.43041 -2.53572
upperneck 3.55082 4.90846 -4.37671
head 1.62725 2.34439 -0.827752
rclavicle 2.98177e-016 5.76476e-015
rhumerus -48.86 14.8566 -97.0925
rradius 73.4526
rwrist 0.597807
rhand -27.692 26.7675
rfingers 7.12502
rthumb -1.08844 -3.20946
lclavicle 2.98177e-016 5.76476e-015
lhumerus 133.162 188.127 272.848
lradius 83.8702
lwrist 9.30485
lhand -10.341 -11.7066
lfingers 7.12502
lthumb 15.6553 17.68
rfemur -18.3394 1.07275 23.9266
rtibia 39.2001
rfoot -0.400779 -2.28245
rtoes -10.3189
lfemur -21.8936 -3.93495 -15.8656
ltibia 52.2827
lfoot -8.65734 3.82232
ltoes -13.0079
69
root 10.1483 17.3229 0.87539 321.256 83.3258 327.908
lowerback 24.4872 -1.85016 3.53431
upperback 6.6243 -1.05239 0.0461516
thorax -6.37118 -0.328423 -1.68879
lowerneck -3.37293 3.40201 -2.4275
upperneck 1.973 4.81505 -4.51583
head 1.23133 2.32868 -0.892094
rclavicle -2.28602e-015 -2.00773e-014
rhumerus -48.1338 13.5061 -96.8523
rradius 69.2815
rwrist 1.1946
rhand -29.2334 27.7095
rfingers 7.12502
rthumb -2.57711 -2.25465
lclavicle -2.28602e-015 -2.00773e-014
lhumerus 133.357 185.982 273.115
lradius 80.5426
lwrist 9.88028
lhand -11.7796 -12.1967
lfingers 7.12502
lthumb 14.2694 17.2931
rfemur -19.7471 1.24984 24.0547
rtibia 43.0671
rfoot -4.86966 -0.889456
rtoes -10.4905
lfemur -22.8879 -4.22189 -15.5453
ltibia 55.439
lfoot -12.6547 3.2521
ltoes -14.4815
70
root 10.3438 17.0413 0.873474 320.832 83.0556 327.555
lowerback 25.1172 -1.83689 3.7091
upperback 6.7249 -0.944162 0.0703951
thorax -6.57267 -0.270733 -1.79057
lowerneck -3.92533 3.35642 -2.28022
upperneck 0.431395 4.70485 -4.6499
head 0.847055 2.30789 -0.962445
rclavicle -2.62396e-014 1.31198e-014
rhumerus -47.1934 12.0499 -96.5283
rradius 64.9814
rwrist 1.84857
rhand -30.7384 28.6713
rfingers 7.12502
rthumb -4.03048 -1.27036
lclavicle -2.62396e-014 1.31198e-014
lhumerus 133.64 183.957 273.255
lradius 77.1236
lwrist 10.6851
lhand -13.2277 -12.8601
lfingers 7.12502
lthumb 12.8737 16.7229
rfemur -21.1554 1.34913 24.2549
rtibia 47.1799
rfoot -9.20214 0.286505
rtoes -10.8284
lfemur -23.9865 -4.3355 -15.2244
ltibia 58.9682
lfoot -16.6719 2.68511
ltoes -15.5357
